<svg id="visual" viewBox="0 0 900 600" width="900" height="600" xmlns="http://www.w3.org/2000/svg"
    xmlns:xlink="http://www.w3.org/1999/xlink" version="1.1">
    <rect x="0" y="0" width="900" height="600" fill="#212A3E"></rect>
    <path
        d="M0 192L21.5 188.3C43 184.7 86 177.3 128.8 186.7C171.7 196 214.3 222 257.2 211.8C300 201.7 343 155.3 385.8 152C428.7 148.7 471.3 188.3 514.2 189.3C557 190.3 600 152.7 642.8 133.2C685.7 113.7 728.3 112.3 771.2 120.5C814 128.7 857 146.3 878.5 155.2L900 164L900 601L878.5 601C857 601 814 601 771.2 601C728.3 601 685.7 601 642.8 601C600 601 557 601 514.2 601C471.3 601 428.7 601 385.8 601C343 601 300 601 257.2 601C214.3 601 171.7 601 128.8 601C86 601 43 601 21.5 601L0 601Z"
        fill="#ffead2"></path>
    <path
        d="M0 171L21.5 188.8C43 206.7 86 242.3 128.8 244C171.7 245.7 214.3 213.3 257.2 206.8C300 200.3 343 219.7 385.8 235.7C428.7 251.7 471.3 264.3 514.2 270C557 275.7 600 274.3 642.8 265C685.7 255.7 728.3 238.3 771.2 229.5C814 220.7 857 220.3 878.5 220.2L900 220L900 601L878.5 601C857 601 814 601 771.2 601C728.3 601 685.7 601 642.8 601C600 601 557 601 514.2 601C471.3 601 428.7 601 385.8 601C343 601 300 601 257.2 601C214.3 601 171.7 601 128.8 601C86 601 43 601 21.5 601L0 601Z"
        fill="#fddbc8"></path>
    <path
        d="M0 248L21.5 256.7C43 265.3 86 282.7 128.8 285.2C171.7 287.7 214.3 275.3 257.2 275.5C300 275.7 343 288.3 385.8 297.2C428.7 306 471.3 311 514.2 300.2C557 289.3 600 262.7 642.8 254.3C685.7 246 728.3 256 771.2 253.5C814 251 857 236 878.5 228.5L900 221L900 601L878.5 601C857 601 814 601 771.2 601C728.3 601 685.7 601 642.8 601C600 601 557 601 514.2 601C471.3 601 428.7 601 385.8 601C343 601 300 601 257.2 601C214.3 601 171.7 601 128.8 601C86 601 43 601 21.5 601L0 601Z"
        fill="#f9ccc2"></path>
    <path
        d="M0 338L21.5 337.3C43 336.7 86 335.3 128.8 324.8C171.7 314.3 214.3 294.7 257.2 296C300 297.3 343 319.7 385.8 331.2C428.7 342.7 471.3 343.3 514.2 335.8C557 328.3 600 312.7 642.8 309.5C685.7 306.3 728.3 315.7 771.2 325C814 334.3 857 343.7 878.5 348.3L900 353L900 601L878.5 601C857 601 814 601 771.2 601C728.3 601 685.7 601 642.8 601C600 601 557 601 514.2 601C471.3 601 428.7 601 385.8 601C343 601 300 601 257.2 601C214.3 601 171.7 601 128.8 601C86 601 43 601 21.5 601L0 601Z"
        fill="#f2bec1"></path>
    <path
        d="M0 399L21.5 393C43 387 86 375 128.8 363.7C171.7 352.3 214.3 341.7 257.2 335.2C300 328.7 343 326.3 385.8 331C428.7 335.7 471.3 347.3 514.2 346.5C557 345.7 600 332.3 642.8 326C685.7 319.7 728.3 320.3 771.2 327.7C814 335 857 349 878.5 356L900 363L900 601L878.5 601C857 601 814 601 771.2 601C728.3 601 685.7 601 642.8 601C600 601 557 601 514.2 601C471.3 601 428.7 601 385.8 601C343 601 300 601 257.2 601C214.3 601 171.7 601 128.8 601C86 601 43 601 21.5 601L0 601Z"
        fill="#e6b2c2"></path>
    <path
        d="M0 435L21.5 429.7C43 424.3 86 413.7 128.8 406.3C171.7 399 214.3 395 257.2 389.2C300 383.3 343 375.7 385.8 373.8C428.7 372 471.3 376 514.2 382.2C557 388.3 600 396.7 642.8 394.8C685.7 393 728.3 381 771.2 375.3C814 369.7 857 370.3 878.5 370.7L900 371L900 601L878.5 601C857 601 814 601 771.2 601C728.3 601 685.7 601 642.8 601C600 601 557 601 514.2 601C471.3 601 428.7 601 385.8 601C343 601 300 601 257.2 601C214.3 601 171.7 601 128.8 601C86 601 43 601 21.5 601L0 601Z"
        fill="#d5a8c5"></path>
    <path
        d="M0 444L21.5 447.7C43 451.3 86 458.7 128.8 460.7C171.7 462.7 214.3 459.3 257.2 458.7C300 458 343 460 385.8 460.3C428.7 460.7 471.3 459.3 514.2 452.2C557 445 600 432 642.8 431.3C685.7 430.7 728.3 442.3 771.2 453.2C814 464 857 474 878.5 479L900 484L900 601L878.5 601C857 601 814 601 771.2 601C728.3 601 685.7 601 642.8 601C600 601 557 601 514.2 601C471.3 601 428.7 601 385.8 601C343 601 300 601 257.2 601C214.3 601 171.7 601 128.8 601C86 601 43 601 21.5 601L0 601Z"
        fill="#bfa0c7"></path>
    <path
        d="M0 490L21.5 487.3C43 484.7 86 479.3 128.8 479.3C171.7 479.3 214.3 484.7 257.2 491.7C300 498.7 343 507.3 385.8 511.3C428.7 515.3 471.3 514.7 514.2 508.7C557 502.7 600 491.3 642.8 484.5C685.7 477.7 728.3 475.3 771.2 473.8C814 472.3 857 471.7 878.5 471.3L900 471L900 601L878.5 601C857 601 814 601 771.2 601C728.3 601 685.7 601 642.8 601C600 601 557 601 514.2 601C471.3 601 428.7 601 385.8 601C343 601 300 601 257.2 601C214.3 601 171.7 601 128.8 601C86 601 43 601 21.5 601L0 601Z"
        fill="#a399c7"></path>
    <path
        d="M0 517L21.5 517.3C43 517.7 86 518.3 128.8 518.2C171.7 518 214.3 517 257.2 521.2C300 525.3 343 534.7 385.8 542C428.7 549.3 471.3 554.7 514.2 552.5C557 550.3 600 540.7 642.8 539C685.7 537.3 728.3 543.7 771.2 546.5C814 549.3 857 548.7 878.5 548.3L900 548L900 601L878.5 601C857 601 814 601 771.2 601C728.3 601 685.7 601 642.8 601C600 601 557 601 514.2 601C471.3 601 428.7 601 385.8 601C343 601 300 601 257.2 601C214.3 601 171.7 601 128.8 601C86 601 43 601 21.5 601L0 601Z"
        fill="#8294c4"></path>
</svg>