<svg id="visual" viewBox="0 0 900 600" width="900" height="600" xmlns="http://www.w3.org/2000/svg" xmlns:xlink="http://www.w3.org/1999/xlink" version="1.1"><rect x="0" y="0" width="900" height="600" fill="#212A3E"></rect><path d="M0 110L21.5 130.3C43 150.7 86 191.3 128.8 191C171.7 190.7 214.3 149.3 257.2 147.8C300 146.3 343 184.7 385.8 205C428.7 225.3 471.3 227.7 514.2 211C557 194.3 600 158.7 642.8 151.2C685.7 143.7 728.3 164.3 771.2 179.8C814 195.3 857 205.7 878.5 210.8L900 216L900 601L878.5 601C857 601 814 601 771.2 601C728.3 601 685.7 601 642.8 601C600 601 557 601 514.2 601C471.3 601 428.7 601 385.8 601C343 601 300 601 257.2 601C214.3 601 171.7 601 128.8 601C86 601 43 601 21.5 601L0 601Z" fill="#ffead2"></path><path d="M0 231L21.5 224.2C43 217.3 86 203.7 128.8 204.5C171.7 205.3 214.3 220.7 257.2 231.3C300 242 343 248 385.8 251.7C428.7 255.3 471.3 256.7 514.2 253.3C557 250 600 242 642.8 231C685.7 220 728.3 206 771.2 205.5C814 205 857 218 878.5 224.5L900 231L900 601L878.5 601C857 601 814 601 771.2 601C728.3 601 685.7 601 642.8 601C600 601 557 601 514.2 601C471.3 601 428.7 601 385.8 601C343 601 300 601 257.2 601C214.3 601 171.7 601 128.8 601C86 601 43 601 21.5 601L0 601Z" fill="#fddbc8"></path><path d="M0 326L21.5 315.7C43 305.3 86 284.7 128.8 268.7C171.7 252.7 214.3 241.3 257.2 240C300 238.7 343 247.3 385.8 246.3C428.7 245.3 471.3 234.7 514.2 230.2C557 225.7 600 227.3 642.8 237.2C685.7 247 728.3 265 771.2 263.5C814 262 857 241 878.5 230.5L900 220L900 601L878.5 601C857 601 814 601 771.2 601C728.3 601 685.7 601 642.8 601C600 601 557 601 514.2 601C471.3 601 428.7 601 385.8 601C343 601 300 601 257.2 601C214.3 601 171.7 601 128.8 601C86 601 43 601 21.5 601L0 601Z" fill="#f9ccc2"></path><path d="M0 361L21.5 354.8C43 348.7 86 336.3 128.8 333.3C171.7 330.3 214.3 336.7 257.2 326.2C300 315.7 343 288.3 385.8 289.8C428.7 291.3 471.3 321.7 514.2 329.8C557 338 600 324 642.8 314.2C685.7 304.3 728.3 298.7 771.2 303.8C814 309 857 325 878.5 333L900 341L900 601L878.5 601C857 601 814 601 771.2 601C728.3 601 685.7 601 642.8 601C600 601 557 601 514.2 601C471.3 601 428.7 601 385.8 601C343 601 300 601 257.2 601C214.3 601 171.7 601 128.8 601C86 601 43 601 21.5 601L0 601Z" fill="#f2bec1"></path><path d="M0 398L21.5 388.3C43 378.7 86 359.3 128.8 346.8C171.7 334.3 214.3 328.7 257.2 328.7C300 328.7 343 334.3 385.8 346.5C428.7 358.7 471.3 377.3 514.2 381.2C557 385 600 374 642.8 364.5C685.7 355 728.3 347 771.2 353.5C814 360 857 381 878.5 391.5L900 402L900 601L878.5 601C857 601 814 601 771.2 601C728.3 601 685.7 601 642.8 601C600 601 557 601 514.2 601C471.3 601 428.7 601 385.8 601C343 601 300 601 257.2 601C214.3 601 171.7 601 128.8 601C86 601 43 601 21.5 601L0 601Z" fill="#e6b2c2"></path><path d="M0 408L21.5 409.8C43 411.7 86 415.3 128.8 415.2C171.7 415 214.3 411 257.2 402C300 393 343 379 385.8 372.8C428.7 366.7 471.3 368.3 514.2 380C557 391.7 600 413.3 642.8 420.7C685.7 428 728.3 421 771.2 414.3C814 407.7 857 401.3 878.5 398.2L900 395L900 601L878.5 601C857 601 814 601 771.2 601C728.3 601 685.7 601 642.8 601C600 601 557 601 514.2 601C471.3 601 428.7 601 385.8 601C343 601 300 601 257.2 601C214.3 601 171.7 601 128.8 601C86 601 43 601 21.5 601L0 601Z" fill="#d5a8c5"></path><path d="M0 483L21.5 479.8C43 476.7 86 470.3 128.8 470.5C171.7 470.7 214.3 477.3 257.2 476C300 474.7 343 465.3 385.8 464.5C428.7 463.7 471.3 471.3 514.2 473.8C557 476.3 600 473.7 642.8 468.5C685.7 463.3 728.3 455.7 771.2 448C814 440.3 857 432.7 878.5 428.8L900 425L900 601L878.5 601C857 601 814 601 771.2 601C728.3 601 685.7 601 642.8 601C600 601 557 601 514.2 601C471.3 601 428.7 601 385.8 601C343 601 300 601 257.2 601C214.3 601 171.7 601 128.8 601C86 601 43 601 21.5 601L0 601Z" fill="#bfa0c7"></path><path d="M0 520L21.5 518.5C43 517 86 514 128.8 510.7C171.7 507.3 214.3 503.7 257.2 504.7C300 505.7 343 511.3 385.8 512C428.7 512.7 471.3 508.3 514.2 501.7C557 495 600 486 642.8 484.3C685.7 482.7 728.3 488.3 771.2 491.5C814 494.7 857 495.3 878.5 495.7L900 496L900 601L878.5 601C857 601 814 601 771.2 601C728.3 601 685.7 601 642.8 601C600 601 557 601 514.2 601C471.3 601 428.7 601 385.8 601C343 601 300 601 257.2 601C214.3 601 171.7 601 128.8 601C86 601 43 601 21.5 601L0 601Z" fill="#a399c7"></path><path d="M0 541L21.5 544.3C43 547.7 86 554.3 128.8 552.2C171.7 550 214.3 539 257.2 533.5C300 528 343 528 385.8 530.8C428.7 533.7 471.3 539.3 514.2 538.3C557 537.3 600 529.7 642.8 525.3C685.7 521 728.3 520 771.2 526.7C814 533.3 857 547.7 878.5 554.8L900 562L900 601L878.5 601C857 601 814 601 771.2 601C728.3 601 685.7 601 642.8 601C600 601 557 601 514.2 601C471.3 601 428.7 601 385.8 601C343 601 300 601 257.2 601C214.3 601 171.7 601 128.8 601C86 601 43 601 21.5 601L0 601Z" fill="#8294c4"></path></svg>